<svg xmlns="http://www.w3.org/2000/svg" xmlns:xlink="http://www.w3.org/1999/xlink" id="Layer_1" x="0px" y="0px" width="45.35px" height="70.871px" viewBox="0 0 45.35 70.871" xml:space="preserve"><g>	<g>		<path fill="#FFFFFF" d="M0.493,22.259v13.574v8.999v2.248v0.563l0.014,0.596l0.031,0.693c0.031,0.922,0.166,1.846,0.321,2.766   c0.648,3.682,2.311,7.172,4.642,10.051c2.356,2.861,5.421,5.15,8.896,6.541c3.482,1.387,7.278,1.9,10.944,1.442   c7.468-0.858,14.229-5.728,17.374-12.509c1.626-3.369,2.328-7.172,2.103-10.844c-0.195-3.703-1.402-7.398-3.396-10.538   c-1.976-3.16-4.777-5.743-8.026-7.563c-3.262-1.801-7.029-2.752-10.713-2.758v8.834c2.228,0.011,4.481,0.579,6.446,1.66   c1.946,1.101,3.65,2.649,4.831,4.558c2.441,3.791,2.743,8.803,0.778,12.859c-1.886,4.084-5.974,7.014-10.45,7.529   c-2.214,0.281-4.5-0.041-6.588-0.867c-2.089-0.832-3.931-2.217-5.355-3.936c-1.396-1.742-2.406-3.832-2.79-6.045   c-0.09-0.556-0.181-1.109-0.192-1.666l-0.03-0.806v-0.563V44.83v-8.998V22.259c0-2.439-1.979-4.417-4.417-4.417   C2.475,17.842,0.493,19.82,0.493,22.259"></path>		<path fill="#FFFFFF" d="M4.909,9.961L4.909,9.961c-2.439,0-4.417-1.978-4.417-4.417v-0.15c0-2.439,1.978-4.417,4.417-4.417   s4.416,1.978,4.416,4.417v0.15C9.325,7.983,7.349,9.961,4.909,9.961"></path>	</g>	<g>		<path fill="#FFFFFF" d="M26.756,49.64c-0.562,1.588-2.038,2.377-3.527,2.547c-1.538,0.195-3.067-0.436-4.051-1.623   c-0.462-0.602-0.817-1.289-0.937-2.037c-0.022-0.188-0.069-0.371-0.063-0.564l-0.019-0.319V47.08v-2.248v-8.998V22.259   c0-2.439,1.978-4.417,4.419-4.417c2.437,0,4.416,1.978,4.416,4.417v13.574v8.999v2.248v0.563   C26.994,47.642,27.002,48.944,26.756,49.64"></path>		<path fill="#FFFFFF" d="M22.577,9.961L22.577,9.961c-2.439,0-4.417-1.978-4.417-4.417v-0.15c0-2.439,1.978-4.417,4.417-4.417   c2.44,0,4.417,1.978,4.417,4.417v0.15C26.994,7.983,25.018,9.961,22.577,9.961"></path>	</g></g></svg>