<?xml version="1.0" encoding="utf-8"?>
<!-- Generator: Adobe Illustrator 15.0.0, SVG Export Plug-In  -->
<!DOCTYPE svg PUBLIC "-//W3C//DTD SVG 1.1//EN" "http://www.w3.org/Graphics/SVG/1.1/DTD/svg11.dtd" [
	<!ENTITY ns_flows "http://ns.adobe.com/Flows/1.0/">
]>
<svg version="1.1"
	 xmlns="http://www.w3.org/2000/svg" xmlns:xlink="http://www.w3.org/1999/xlink" xmlns:a="http://ns.adobe.com/AdobeSVGViewerExtensions/3.0/"
	 x="0px" y="0px" width="39px" height="60px" viewBox="-0.186 0 39 60" enable-background="new -0.186 0 39 60"
	 xml:space="preserve">
<defs>
</defs>
<path fill="#0A52EB" d="M3.845,0C1.722,0,0,1.722,0,3.845v0.132c0,2.125,1.722,3.844,3.845,3.844c2.125,0,3.845-1.722,3.845-3.844
	V3.845C7.689,1.722,5.969,0,3.845,0z"/>
<path fill="#F49F0A" d="M22.864,42.366c-0.488,1.382-1.775,2.07-3.071,2.217c-1.337,0.17-2.67-0.376-3.526-1.413
	c-0.403-0.522-0.712-1.122-0.815-1.774c-0.02-0.165-0.059-0.324-0.055-0.491l-0.016-0.277v-0.492v-1.958v-7.831v-11.82
	c0-2.124,1.722-3.843,3.846-3.843c2.123,0,3.841,1.722,3.841,3.843v11.818v7.831v1.959v0.489
	C23.073,40.623,23.081,41.758,22.864,42.366z"/>
<path fill="#F49F0A" d="M19.229,7.821c-2.125,0-3.845-1.722-3.845-3.844V3.845C15.382,1.722,17.104,0,19.229,0
	c2.124,0,3.844,1.722,3.844,3.845v0.132C23.073,6.102,21.352,7.821,19.229,7.821z"/>
<path fill="#0A52EB" d="M35.633,30.354c-1.722-2.751-4.16-5.001-6.988-6.585c-1.731-0.956-3.633-1.602-5.573-1.989v7.928
	c0.639,0.217,1.267,0.468,1.857,0.794c1.695,0.96,3.179,2.308,4.207,3.971c2.124,3.3,2.389,7.661,0.68,11.189
	c-1.643,3.556-5.201,6.108-9.099,6.558c-0.457,0.055-0.917,0.083-1.378,0.083c-1.482,0-2.969-0.291-4.357-0.838
	c-1.819-0.727-3.42-1.931-4.662-3.429c-1.217-1.514-2.095-3.334-2.428-5.261c-0.079-0.483-0.157-0.968-0.167-1.452l-0.028-0.699
	v-0.49v-1.959v-7.832V18.526c-0.001-2.121-1.725-3.842-3.847-3.842C1.724,14.683,0,16.403,0,18.526v11.818v7.829v1.96v0.49
	l0.012,0.52l0.028,0.604c0.028,0.803,0.146,1.608,0.281,2.408c0.564,3.206,2.012,6.242,4.041,8.751
	c2.052,2.492,4.719,4.482,7.744,5.696C14.414,59.521,16.881,60,19.336,60c0.768,0,1.535-0.047,2.299-0.143
	c6.501-0.746,12.387-4.985,15.124-10.887c1.419-2.934,2.028-6.248,1.833-9.444C38.417,36.304,37.369,33.086,35.633,30.354z"/>
</svg>
