<?xml version="1.0" encoding="utf-8"?>
<!-- Generator: Adobe Illustrator 15.0.0, SVG Export Plug-In . SVG Version: 6.00 Build 0)  -->
<svg version="1.1" id="Layer_1" xmlns="http://www.w3.org/2000/svg" xmlns:xlink="http://www.w3.org/1999/xlink" x="0px" y="0px"
	 width="24px" height="24px" viewBox="0 0 24 24" enable-background="new 0 0 24 24" xml:space="preserve" fill="#000000">
<g>
	<g>
		<path d="M4.276,7.411v4.727v3.134v0.783v0.196l0.004,0.208L4.291,16.7c0.01,0.321,0.058,0.643,0.111,0.963
			c0.226,1.282,0.805,2.498,1.617,3.5c0.82,0.996,1.888,1.793,3.098,2.278c1.213,0.483,2.535,0.662,3.812,0.502
			c2.601-0.299,4.955-1.995,6.05-4.356c0.566-1.173,0.811-2.498,0.732-3.776c-0.067-1.29-0.488-2.576-1.182-3.669
			c-0.688-1.101-1.664-2-2.795-2.634c-1.136-0.627-2.447-0.958-3.73-0.96v3.076c0.776,0.004,1.561,0.202,2.245,0.578
			c0.678,0.384,1.271,0.922,1.682,1.587c0.85,1.32,0.955,3.065,0.271,4.478c-0.657,1.422-2.08,2.442-3.639,2.622
			c-0.771,0.098-1.567-0.014-2.294-0.302c-0.728-0.29-1.369-0.772-1.865-1.371c-0.486-0.606-0.838-1.334-0.972-2.105
			c-0.031-0.193-0.063-0.386-0.067-0.58l-0.01-0.28v-0.196v-0.782v-3.134V7.411c0-0.849-0.689-1.538-1.538-1.538
			C4.966,5.873,4.276,6.562,4.276,7.411"/>
		<path d="M5.813,3.128L5.813,3.128c-0.85,0-1.538-0.688-1.538-1.538V1.538C4.275,0.689,4.964,0,5.813,0
			c0.849,0,1.538,0.689,1.538,1.538V1.59C7.351,2.44,6.663,3.128,5.813,3.128"/>
	</g>
	<g>
		<path d="M13.421,16.947c-0.196,0.553-0.709,0.828-1.229,0.887c-0.536,0.068-1.068-0.152-1.411-0.565
			c-0.161-0.209-0.285-0.449-0.326-0.709c-0.008-0.066-0.024-0.129-0.022-0.197l-0.006-0.111v-0.197v-0.783v-3.133V7.411
			c0-0.849,0.688-1.538,1.539-1.538c0.848,0,1.538,0.689,1.538,1.538v4.727v3.134v0.783v0.196
			C13.504,16.251,13.507,16.704,13.421,16.947"/>
		<path d="M11.966,3.128L11.966,3.128c-0.85,0-1.538-0.688-1.538-1.538V1.538C10.428,0.689,11.116,0,11.966,0
			s1.538,0.689,1.538,1.538V1.59C13.504,2.44,12.816,3.128,11.966,3.128"/>
	</g>
</g>
</svg>
